<?xml version="1.0" standalone="no"?>
<!DOCTYPE svg PUBLIC "-//W3C//DTD SVG 20010904//EN"
 "http://www.w3.org/TR/2001/REC-SVG-20010904/DTD/svg10.dtd">
<svg version="1.0" xmlns="http://www.w3.org/2000/svg"
 width="103.000000pt" height="84.000000pt" viewBox="0 0 103.000000 84.000000"
 preserveAspectRatio="xMidYMid meet">

<g transform="translate(0.000000,84.000000) scale(0.100000,-0.100000)"
fill="#000000" stroke="none">
<path d="M180 670 l0 -129 -57 -3 -58 -3 -17 -105 c-25 -153 -29 -141 43 -119
79 25 79 25 79 -13 0 -53 34 -94 122 -152 96 -62 200 -116 224 -116 36 0 240
116 292 166 46 45 52 55 52 92 0 48 6 50 66 23 l41 -19 16 112 c10 61 17 117
17 124 0 8 -21 12 -70 12 l-70 0 0 130 c0 72 -2 130 -5 130 -2 0 -30 -7 -62
-15 -72 -19 -178 -19 -231 -1 -35 13 -47 13 -88 0 -61 -18 -168 -18 -230 1
-27 8 -52 15 -56 15 -5 0 -8 -58 -8 -130z m186 80 c33 0 82 6 107 14 40 12 54
12 94 0 59 -18 153 -18 221 0 l52 14 0 -117 c0 -78 -4 -121 -12 -129 -9 -9 6
-12 70 -12 l83 0 -5 -32 c-17 -105 -26 -152 -30 -156 -3 -2 -25 4 -50 13 -25
10 -56 15 -68 12 -13 -4 -37 0 -53 9 -23 12 -31 12 -42 2 -10 -11 -5 -24 32
-71 25 -31 45 -61 45 -65 0 -5 -8 -16 -18 -26 -18 -15 -21 -13 -62 64 -44 81
-77 114 -104 104 -21 -8 -21 -10 13 -142 l29 -113 -29 -14 c-15 -8 -32 -15
-38 -15 -5 0 -12 38 -16 85 -7 77 -9 84 -25 75 -12 -7 -16 -17 -13 -31 5 -19
4 -20 -13 -11 -15 8 -23 7 -38 -6 -18 -16 -19 -16 -13 9 5 18 2 31 -8 39 -17
14 -22 -2 -28 -92 -2 -32 -6 -61 -9 -64 -7 -7 -68 24 -68 34 0 4 13 58 29 119
22 87 26 115 17 123 -26 20 -64 -13 -107 -93 -23 -42 -45 -77 -49 -77 -4 0
-14 8 -23 18 -15 17 -13 22 32 78 45 56 48 61 31 72 -15 9 -25 8 -47 -3 -15
-8 -36 -12 -45 -9 -9 3 -43 -2 -76 -11 -33 -8 -64 -15 -69 -15 -6 0 -4 35 3
88 8 48 14 90 14 95 0 4 32 7 71 7 64 0 69 1 55 16 -13 12 -16 39 -16 123 0
59 2 110 5 113 3 3 29 -1 57 -9 29 -7 80 -13 114 -13z"/>
<path d="M493 710 c-12 -5 -27 -18 -33 -30 -16 -29 9 -65 55 -80 25 -8 35 -17
33 -28 -4 -20 -44 -28 -62 -13 -13 11 -46 5 -46 -8 0 -18 28 -31 66 -31 56 0
74 8 85 38 13 33 -10 68 -51 77 -34 8 -49 30 -32 47 8 8 18 8 37 0 24 -11 55
-7 55 7 0 10 -47 31 -68 30 -9 0 -27 -4 -39 -9z"/>
<path d="M255 633 c-10 -96 -3 -107 63 -111 57 -3 91 19 93 61 0 12 4 46 8 75
7 49 6 52 -15 52 -20 0 -23 -6 -29 -57 -9 -82 -19 -103 -51 -103 l-27 0 6 80
c6 79 6 80 -17 80 -23 0 -25 -5 -31 -77z"/>
<path d="M646 628 c-21 -46 -40 -89 -43 -95 -9 -22 35 -15 47 7 8 14 21 20 46
20 27 0 37 -5 41 -20 7 -25 43 -27 42 -2 0 9 -8 51 -17 92 -16 72 -18 75 -48
78 -30 3 -32 0 -68 -80z m77 0 c6 -36 5 -38 -23 -38 l-29 0 17 45 c18 50 27
48 35 -7z"/>
<path d="M133 483 c-22 -8 -14 -39 14 -52 21 -10 23 -14 13 -24 -10 -9 -14 -9
-17 1 -7 17 -33 15 -33 -4 0 -12 9 -14 38 -12 30 2 38 7 40 25 3 17 -3 26 -23
33 -15 6 -23 15 -19 21 4 8 9 8 17 0 15 -15 27 -14 27 4 0 15 -31 19 -57 8z"/>
<path d="M218 445 c5 -53 15 -57 39 -12 l18 32 3 -27 c5 -38 25 -35 45 7 20
41 20 45 8 45 -5 0 -13 -10 -17 -22 l-7 -23 -8 23 c-11 28 -33 28 -47 0 l-11
-23 0 23 c-1 12 -7 22 -14 22 -8 0 -11 -14 -9 -45z"/>
<path d="M356 474 c-9 -24 -7 -54 4 -54 6 0 10 6 10 13 0 6 3 22 6 35 7 25
-11 31 -20 6z"/>
<path d="M400 478 c0 -7 -3 -23 -6 -35 -9 -32 10 -28 23 5 l11 27 1 -27 c1
-18 7 -28 16 -28 8 0 21 12 30 28 l16 27 -6 -28 c-4 -21 -2 -28 7 -25 7 3 15
19 19 36 5 27 3 32 -12 32 -10 0 -24 -10 -30 -22 l-12 -22 -8 22 c-9 23 -49
31 -49 10z"/>
<path d="M536 474 c-9 -25 -7 -56 4 -49 6 3 10 16 11 28 0 19 2 19 11 -5 12
-34 22 -35 42 -6 l16 22 0 -22 c0 -12 4 -22 9 -22 9 0 21 33 21 58 0 20 -38
14 -45 -8 -3 -11 -11 -20 -16 -20 -5 0 -9 9 -9 20 0 24 -35 28 -44 4z"/>
<path d="M667 458 c-2 -18 -3 -35 -1 -37 7 -8 21 13 28 42 5 20 3 27 -8 27 -8
0 -16 -14 -19 -32z"/>
<path d="M716 468 c-3 -13 -6 -32 -6 -42 0 -27 17 -8 23 24 4 24 4 24 16 -7
16 -40 39 -43 47 -5 3 15 7 33 10 40 7 25 -15 11 -23 -15 l-10 -28 -6 28 c-9
34 -42 37 -51 5z"/>
<path d="M836 474 c-19 -19 -21 -58 -3 -71 6 -6 24 -13 40 -17 20 -5 27 -3 27
8 0 8 3 21 6 30 4 11 0 16 -15 16 -13 0 -19 -5 -15 -14 7 -19 -16 -32 -27 -15
-12 20 -11 32 5 54 12 17 16 17 30 6 18 -15 32 -9 21 8 -9 16 -51 13 -69 -5z"/>
<path d="M510 382 c0 -5 -11 -14 -25 -20 -21 -10 -25 -19 -25 -52 0 -34 3 -40
20 -40 12 0 25 10 30 23 l9 22 7 -22 c4 -16 14 -23 31 -23 19 0 24 4 19 16 -3
9 -6 26 -6 38 0 13 -12 31 -30 44 -16 13 -30 19 -30 14z"/>
</g>
</svg>
