<?xml version="1.0" standalone="no"?>
<!DOCTYPE svg PUBLIC "-//W3C//DTD SVG 20010904//EN"
 "http://www.w3.org/TR/2001/REC-SVG-20010904/DTD/svg10.dtd">
<svg version="1.0" xmlns="http://www.w3.org/2000/svg"
 width="84.000000pt" height="96.000000pt" viewBox="0 0 84.000000 96.000000"
 preserveAspectRatio="xMidYMid meet">

<g transform="translate(0.000000,96.000000) scale(0.100000,-0.100000)"
fill="#000000" stroke="none">
<path d="M154 915 c-9 -22 -19 -65 -22 -96 -4 -51 0 -67 42 -158 44 -97 46
-104 46 -195 0 -87 2 -97 26 -125 14 -18 35 -36 45 -42 16 -8 15 -4 -6 27 -28
41 -28 42 -15 172 8 86 7 98 -16 165 -14 40 -38 122 -54 182 l-29 110 -17 -40z"/>
<path d="M616 910 c-3 -22 -26 -105 -50 -183 -43 -139 -44 -144 -36 -227 13
-126 12 -134 -15 -174 -19 -29 -21 -35 -7 -27 64 34 82 80 82 208 0 63 5 85
40 162 51 113 52 194 5 264 -11 15 -13 13 -19 -23z"/>
<path d="M111 679 c-1 -46 4 -63 30 -102 17 -26 35 -49 40 -53 21 -13 5 57
-31 131 l-38 80 -1 -56z"/>
<path d="M648 653 c-21 -45 -38 -95 -38 -110 l0 -28 35 40 c37 43 48 79 43
140 l-3 40 -37 -82z"/>
<path d="M125 540 c13 -43 33 -89 50 -112 15 -22 15 -22 15 14 0 27 -9 47 -36
80 -29 34 -35 38 -29 18z"/>
<path d="M643 520 c-25 -28 -33 -47 -33 -76 l0 -38 16 23 c17 24 57 122 52
126 -2 1 -18 -15 -35 -35z"/>
<path d="M387 460 c-4 -14 -14 -20 -33 -20 -27 0 -27 0 -8 -21 11 -13 17 -31
15 -47 -3 -27 -3 -27 18 -8 21 19 21 19 43 0 21 -19 21 -19 15 6 -4 17 0 31
15 47 l21 23 -27 0 c-19 0 -29 6 -33 20 -3 11 -9 20 -13 20 -4 0 -10 -9 -13
-20z"/>
<path d="M223 168 c-47 -23 -40 -71 13 -90 19 -6 34 -17 34 -24 0 -19 -28 -24
-44 -9 -22 23 -55 19 -49 -4 11 -43 93 -50 128 -11 24 26 10 59 -31 76 -48 20
-44 37 6 29 33 -6 40 -4 40 9 0 9 -12 21 -26 26 -31 12 -43 12 -71 -2z"/>
<path d="M25 158 c-2 -7 -9 -35 -15 -61 -13 -61 -2 -84 46 -93 51 -9 86 19
101 82 17 76 16 86 -9 82 -19 -2 -25 -13 -33 -55 -11 -59 -26 -79 -50 -69 -12
4 -15 13 -12 29 20 83 20 97 -2 97 -12 0 -24 -6 -26 -12z"/>
<path d="M366 93 c-43 -75 -44 -78 -24 -81 13 -2 24 1 26 7 5 14 72 15 72 1 0
-5 10 -10 21 -10 20 0 21 3 14 57 -11 93 -15 103 -41 103 -19 0 -32 -15 -68
-77z m64 -8 c0 -16 -6 -25 -15 -25 -18 0 -18 5 -5 31 14 26 20 24 20 -6z"/>
<path d="M510 150 c0 -14 7 -20 21 -20 17 0 20 -5 16 -22 -3 -13 -9 -40 -13
-61 -6 -37 -5 -39 17 -35 20 2 25 11 34 58 9 45 14 55 35 60 14 3 26 14 28 23
3 15 -6 17 -67 17 -64 0 -71 -2 -71 -20z"/>
<path d="M675 158 c-7 -22 -25 -118 -25 -133 0 -8 9 -15 20 -15 15 0 22 9 27
30 5 26 10 30 38 30 21 0 35 6 39 16 9 24 9 24 -29 24 -50 0 -44 18 7 22 31 2
44 8 46 21 3 15 -5 17 -58 17 -40 0 -62 -4 -65 -12z"/>
</g>
</svg>
